# xmcd CD database file
#
# Track frame offsets:
#	375
#	26131
#	49284
#	77361
#	103788
#	130575
#	154505
#	168193
#	177160
#	188523
#	196040
#	221167
#	225042
#	247704
#
# Disc length: 3431 seconds
#
# Revision: 0
# Processed by: cddbd v1.5.1PL2 Copyright (c) Steve Scherf et al.
# Submitted via: CDex 1.51
#
DISCID=9f0d620e
DTITLE=Dynamite Vikings - Vikingology
DYEAR=2003
DGENRE=Jazz
TTITLE0=Vikingology
TTITLE1=Bottle Eater
TTITLE2=Snow In The Car
TTITLE3=Roller Coaster
TTITLE4=Sodavand for 3
TTITLE5=Right Time, Wrong Place
TTITLE6=Dynamo Triology 1
TTITLE7=Dynamo Triology 2
TTITLE8=Dynamo Triology 3
TTITLE9=Dynamo Triology 4 or Pierre Walks Out
TTITLE10=Holy Lake
TTITLE11=Three Bananas
TTITLE12=Some Other Forest
TTITLE13=Cleaning Up My Mind
EXTD=YEAR: 2003
EXTT0=
EXTT1=
EXTT2=
EXTT3=
EXTT4=
EXTT5=
EXTT6=
EXTT7=
EXTT8=
EXTT9=
EXTT10=
EXTT11=
EXTT12=
EXTT13=
PLAYORDER=
